<svg width="70" height="70" viewBox="0 0 70 70" fill="none" xmlns="http://www.w3.org/2000/svg">
<path fill-rule="evenodd" clip-rule="evenodd" d="M31.8571 17.0714C31.8571 15.3751 30.4501 14 28.7143 14H16.1429C14.4071 14 13 15.3751 13 17.0714V29.3571C13 31.0535 14.4071 32.4286 16.1429 32.4286H28.7143C30.4501 32.4286 31.8571 31.0535 31.8571 29.3571V17.0714ZM25.5714 21.6786C25.5714 20.8304 24.8679 20.1429 24 20.1429H20.8571C19.9893 20.1429 19.2857 20.8304 19.2857 21.6786V24.75C19.2857 25.5981 19.9893 26.2857 20.8571 26.2857H24C24.8679 26.2857 25.5714 25.5981 25.5714 24.75V21.6786Z" fill="url(#paint0_linear_236_240)"/>
<path fill-rule="evenodd" clip-rule="evenodd" d="M53.8571 38.5714C55.5929 38.5714 57 39.9465 57 41.6429V53.9286C57 55.6249 55.5929 57 53.8571 57H41.2857C39.5499 57 38.1429 55.6249 38.1429 53.9286V41.6429C38.1429 39.9465 39.5499 38.5714 41.2857 38.5714H53.8571ZM44.4286 46.25C44.4286 45.402 45.1323 44.7143 46 44.7143H49.1429C50.0106 44.7143 50.7143 45.402 50.7143 46.25V49.3214C50.7143 50.1694 50.0106 50.8571 49.1429 50.8571H46C45.1323 50.8571 44.4286 50.1694 44.4286 49.3214V46.25Z" fill="url(#paint1_linear_236_240)"/>
<path d="M41.2857 14C39.5499 14 38.1429 15.3751 38.1429 17.0714C38.1429 18.7677 39.5499 20.1429 41.2857 20.1429H49.1429C50.0106 20.1429 50.7143 20.8304 50.7143 21.6786V29.3571C50.7143 31.0535 52.1213 32.4286 53.8571 32.4286C55.5929 32.4286 57 31.0535 57 29.3571V17.0714C57 15.3751 55.5929 14 53.8571 14H41.2857Z" fill="url(#paint2_linear_236_240)"/>
<path d="M41.2857 23.2143C39.5499 23.2143 38.1429 24.5894 38.1429 26.2857V29.3571C38.1429 31.0535 39.5499 32.4286 41.2857 32.4286C43.0215 32.4286 44.4286 31.0535 44.4286 29.3571V26.2857C44.4286 24.5894 43.0215 23.2143 41.2857 23.2143Z" fill="url(#paint3_linear_236_240)"/>
<path d="M16.1429 38.5714C14.4071 38.5714 13 39.9465 13 41.6429V47.7857C13 49.4821 14.4071 50.8571 16.1429 50.8571C17.8786 50.8571 19.2857 49.4821 19.2857 47.7857V46.25C19.2857 45.402 19.9893 44.7143 20.8571 44.7143H28.7143C30.4501 44.7143 31.8571 43.3392 31.8571 41.6429C31.8571 39.9465 30.4501 38.5714 28.7143 38.5714H16.1429Z" fill="url(#paint4_linear_236_240)"/>
<path d="M28.7143 50.8571C26.9785 50.8571 25.5714 52.2322 25.5714 53.9286C25.5714 55.6249 26.9785 57 28.7143 57C30.4501 57 31.8571 55.6249 31.8571 53.9286C31.8571 52.2322 30.4501 50.8571 28.7143 50.8571Z" fill="url(#paint5_linear_236_240)"/>
<path d="M70 9.54546C70 4.27366 65.7265 0 60.4545 0H47.7273C45.97 0 44.5455 1.42456 44.5455 3.18182C44.5455 4.93907 45.97 6.36364 47.7273 6.36364H60.4545C62.2119 6.36364 63.6364 7.7882 63.6364 9.54546V22.2727C63.6364 24.03 65.0609 25.4545 66.8182 25.4545C68.5755 25.4545 70 24.03 70 22.2727V9.54546Z" fill="#BDBDBD"/>
<path d="M70 47.7273C70 45.97 68.5755 44.5455 66.8182 44.5455C65.0609 44.5455 63.6364 45.97 63.6364 47.7273V60.4545C63.6364 62.2119 62.2119 63.6364 60.4545 63.6364H47.7273C45.97 63.6364 44.5455 65.0609 44.5455 66.8182C44.5455 68.5755 45.97 70 47.7273 70H60.4545C65.7265 70 70 65.7265 70 60.4545V47.7273Z" fill="#BDBDBD"/>
<path d="M9.54546 63.6364C7.7882 63.6364 6.36364 62.2119 6.36364 60.4545V47.7273C6.36364 45.97 4.93907 44.5455 3.18182 44.5455C1.42456 44.5455 0 45.97 0 47.7273V60.4545C0 65.7265 4.27366 70 9.54546 70H22.2727C24.03 70 25.4545 68.5755 25.4545 66.8182C25.4545 65.0609 24.03 63.6364 22.2727 63.6364H9.54546Z" fill="#BDBDBD"/>
<path d="M0 22.2727C0 24.03 1.42456 25.4545 3.18182 25.4545C4.93907 25.4545 6.36364 24.03 6.36364 22.2727V9.54546C6.36364 7.7882 7.7882 6.36364 9.54546 6.36364H22.2727C24.03 6.36364 25.4545 4.93907 25.4545 3.18182C25.4545 1.42456 24.03 0 22.2727 0H9.54546C4.27366 0 0 4.27366 0 9.54546V22.2727Z" fill="#BDBDBD"/>
<defs>
<linearGradient id="paint0_linear_236_240" x1="16.6085" y1="5.08537" x2="58.1998" y2="8.93466" gradientUnits="userSpaceOnUse">
<stop stop-color="#0891DA"/>
<stop offset="1" stop-color="#08D9C4"/>
</linearGradient>
<linearGradient id="paint1_linear_236_240" x1="16.6085" y1="5.08537" x2="58.1998" y2="8.93466" gradientUnits="userSpaceOnUse">
<stop stop-color="#0891DA"/>
<stop offset="1" stop-color="#08D9C4"/>
</linearGradient>
<linearGradient id="paint2_linear_236_240" x1="16.6085" y1="5.08537" x2="58.1998" y2="8.93466" gradientUnits="userSpaceOnUse">
<stop stop-color="#0891DA"/>
<stop offset="1" stop-color="#08D9C4"/>
</linearGradient>
<linearGradient id="paint3_linear_236_240" x1="16.6085" y1="5.08537" x2="58.1998" y2="8.93466" gradientUnits="userSpaceOnUse">
<stop stop-color="#0891DA"/>
<stop offset="1" stop-color="#08D9C4"/>
</linearGradient>
<linearGradient id="paint4_linear_236_240" x1="16.6085" y1="5.08537" x2="58.1998" y2="8.93466" gradientUnits="userSpaceOnUse">
<stop stop-color="#0891DA"/>
<stop offset="1" stop-color="#08D9C4"/>
</linearGradient>
<linearGradient id="paint5_linear_236_240" x1="16.6085" y1="5.08537" x2="58.1998" y2="8.93466" gradientUnits="userSpaceOnUse">
<stop stop-color="#0891DA"/>
<stop offset="1" stop-color="#08D9C4"/>
</linearGradient>
</defs>
</svg>
